<?xml version="1.0" encoding="UTF-8" standalone="no"?><!DOCTYPE svg PUBLIC "-//W3C//DTD SVG 1.1//EN" "http://www.w3.org/Graphics/SVG/1.1/DTD/svg11.dtd"><!-- Generated by graphviz version 2.40.1 (20161225.0304)
 --><!-- Title: Tree Pages: 1 --><svg xmlns="http://www.w3.org/2000/svg" xmlns:xlink="http://www.w3.org/1999/xlink" width="551pt" height="339pt" viewBox="0.00 0.00 550.77 339.20">
<g id="graph0" class="graph" transform="scale(1 1) rotate(0) translate(4 335.2)">
<title>Tree</title>
<polygon fill="#ffffff" stroke="transparent" points="-4,4 -4,-335.2 546.772,-335.2 546.772,4 -4,4"/>
<!-- 0 -->
<g id="node1" class="node">
<title>0</title>
<path fill="#399de5" fill-opacity="0.560784" stroke="#000000" d="M363.7474,-331.2C363.7474,-331.2 179.911,-331.2 179.911,-331.2 173.911,-331.2 167.911,-325.2 167.911,-319.2 167.911,-319.2 167.911,-251.2 167.911,-251.2 167.911,-245.2 173.911,-239.2 179.911,-239.2 179.911,-239.2 363.7474,-239.2 363.7474,-239.2 369.7474,-239.2 375.7474,-245.2 375.7474,-251.2 375.7474,-251.2 375.7474,-319.2 375.7474,-319.2 375.7474,-325.2 369.7474,-331.2 363.7474,-331.2"/>
<text text-anchor="middle" x="271.8292" y="-314.6" font-family="Helvetica,sans-Serif" font-size="14.00" fill="#000000">CheckingAccount_none &lt;= 0.5</text>
<text text-anchor="middle" x="271.8292" y="-297.8" font-family="Helvetica,sans-Serif" font-size="14.00" fill="#000000">entropy = 0.888</text>
<text text-anchor="middle" x="271.8292" y="-281" font-family="Helvetica,sans-Serif" font-size="14.00" fill="#000000">samples = 900</text>
<text text-anchor="middle" x="271.8292" y="-264.2" font-family="Helvetica,sans-Serif" font-size="14.00" fill="#000000">value = [275, 625]</text>
<text text-anchor="middle" x="271.8292" y="-247.4" font-family="Helvetica,sans-Serif" font-size="14.00" fill="#000000">class = bad</text>
</g>
<!-- 1 -->
<g id="node2" class="node">
<title>1</title>
<path fill="#399de5" fill-opacity="0.250980" stroke="#000000" d="M240.4978,-203.2C240.4978,-203.2 137.1606,-203.2 137.1606,-203.2 131.1606,-203.2 125.1606,-197.2 125.1606,-191.2 125.1606,-191.2 125.1606,-123.2 125.1606,-123.2 125.1606,-117.2 131.1606,-111.2 137.1606,-111.2 137.1606,-111.2 240.4978,-111.2 240.4978,-111.2 246.4978,-111.2 252.4978,-117.2 252.4978,-123.2 252.4978,-123.2 252.4978,-191.2 252.4978,-191.2 252.4978,-197.2 246.4978,-203.2 240.4978,-203.2"/>
<text text-anchor="middle" x="188.8292" y="-186.6" font-family="Helvetica,sans-Serif" font-size="14.00" fill="#000000">Duration &lt;= 11.5</text>
<text text-anchor="middle" x="188.8292" y="-169.8" font-family="Helvetica,sans-Serif" font-size="14.00" fill="#000000">entropy = 0.985</text>
<text text-anchor="middle" x="188.8292" y="-153" font-family="Helvetica,sans-Serif" font-size="14.00" fill="#000000">samples = 544</text>
<text text-anchor="middle" x="188.8292" y="-136.2" font-family="Helvetica,sans-Serif" font-size="14.00" fill="#000000">value = [233, 311]</text>
<text text-anchor="middle" x="188.8292" y="-119.4" font-family="Helvetica,sans-Serif" font-size="14.00" fill="#000000">class = bad</text>
</g>
<!-- 0&#45;&gt;1 -->
<g id="edge1" class="edge">
<title>0-&gt;1</title>
<path fill="none" stroke="#000000" d="M241.8643,-238.9891C236.1638,-230.1979 230.1478,-220.9202 224.2954,-211.8949"/>
<polygon fill="#000000" stroke="#000000" points="227.1275,-209.8293 218.7501,-203.3431 221.2542,-213.6378 227.1275,-209.8293"/>
<text text-anchor="middle" x="213.5356" y="-223.5932" font-family="Helvetica,sans-Serif" font-size="14.00" fill="#000000">True</text>
</g>
<!-- 4 -->
<g id="node5" class="node">
<title>4</title>
<path fill="#399de5" fill-opacity="0.866667" stroke="#000000" d="M426.8445,-203.2C426.8445,-203.2 282.8139,-203.2 282.8139,-203.2 276.8139,-203.2 270.8139,-197.2 270.8139,-191.2 270.8139,-191.2 270.8139,-123.2 270.8139,-123.2 270.8139,-117.2 276.8139,-111.2 282.8139,-111.2 282.8139,-111.2 426.8445,-111.2 426.8445,-111.2 432.8445,-111.2 438.8445,-117.2 438.8445,-123.2 438.8445,-123.2 438.8445,-191.2 438.8445,-191.2 438.8445,-197.2 432.8445,-203.2 426.8445,-203.2"/>
<text text-anchor="middle" x="354.8292" y="-186.6" font-family="Helvetica,sans-Serif" font-size="14.00" fill="#000000">OtherPlans_none &lt;= 0.5</text>
<text text-anchor="middle" x="354.8292" y="-169.8" font-family="Helvetica,sans-Serif" font-size="14.00" fill="#000000">entropy = 0.524</text>
<text text-anchor="middle" x="354.8292" y="-153" font-family="Helvetica,sans-Serif" font-size="14.00" fill="#000000">samples = 356</text>
<text text-anchor="middle" x="354.8292" y="-136.2" font-family="Helvetica,sans-Serif" font-size="14.00" fill="#000000">value = [42, 314]</text>
<text text-anchor="middle" x="354.8292" y="-119.4" font-family="Helvetica,sans-Serif" font-size="14.00" fill="#000000">class = bad</text>
</g>
<!-- 0&#45;&gt;4 -->
<g id="edge4" class="edge">
<title>0-&gt;4</title>
<path fill="none" stroke="#000000" d="M301.7941,-238.9891C307.4946,-230.1979 313.5106,-220.9202 319.363,-211.8949"/>
<polygon fill="#000000" stroke="#000000" points="322.4042,-213.6378 324.9083,-203.3431 316.5309,-209.8293 322.4042,-213.6378"/>
<text text-anchor="middle" x="330.1228" y="-223.5932" font-family="Helvetica,sans-Serif" font-size="14.00" fill="#000000">False</text>
</g>
<!-- 2 -->
<g id="node3" class="node">
<title>2</title>
<path fill="#399de5" fill-opacity="0.741176" stroke="#000000" d="M101.4881,-75.3003C101.4881,-75.3003 12.1703,-75.3003 12.1703,-75.3003 6.1703,-75.3003 .1703,-69.3003 .1703,-63.3003 .1703,-63.3003 .1703,-11.8997 .1703,-11.8997 .1703,-5.8997 6.1703,.1003 12.1703,.1003 12.1703,.1003 101.4881,.1003 101.4881,.1003 107.4881,.1003 113.4881,-5.8997 113.4881,-11.8997 113.4881,-11.8997 113.4881,-63.3003 113.4881,-63.3003 113.4881,-69.3003 107.4881,-75.3003 101.4881,-75.3003"/>
<text text-anchor="middle" x="56.8292" y="-58.6" font-family="Helvetica,sans-Serif" font-size="14.00" fill="#000000">entropy = 0.735</text>
<text text-anchor="middle" x="56.8292" y="-41.8" font-family="Helvetica,sans-Serif" font-size="14.00" fill="#000000">samples = 92</text>
<text text-anchor="middle" x="56.8292" y="-25" font-family="Helvetica,sans-Serif" font-size="14.00" fill="#000000">value = [19, 73]</text>
<text text-anchor="middle" x="56.8292" y="-8.2" font-family="Helvetica,sans-Serif" font-size="14.00" fill="#000000">class = bad</text>
</g>
<!-- 1&#45;&gt;2 -->
<g id="edge2" class="edge">
<title>1-&gt;2</title>
<path fill="none" stroke="#000000" d="M137.7946,-110.9595C127.2864,-101.4385 116.2439,-91.4333 105.8105,-81.98"/>
<polygon fill="#000000" stroke="#000000" points="108.0979,-79.3296 98.3373,-75.2088 103.3978,-84.517 108.0979,-79.3296"/>
</g>
<!-- 3 -->
<g id="node4" class="node">
<title>3</title>
<path fill="#399de5" fill-opacity="0.101961" stroke="#000000" d="M247.4978,-75.3003C247.4978,-75.3003 144.1606,-75.3003 144.1606,-75.3003 138.1606,-75.3003 132.1606,-69.3003 132.1606,-63.3003 132.1606,-63.3003 132.1606,-11.8997 132.1606,-11.8997 132.1606,-5.8997 138.1606,.1003 144.1606,.1003 144.1606,.1003 247.4978,.1003 247.4978,.1003 253.4978,.1003 259.4978,-5.8997 259.4978,-11.8997 259.4978,-11.8997 259.4978,-63.3003 259.4978,-63.3003 259.4978,-69.3003 253.4978,-75.3003 247.4978,-75.3003"/>
<text text-anchor="middle" x="195.8292" y="-58.6" font-family="Helvetica,sans-Serif" font-size="14.00" fill="#000000">entropy = 0.998</text>
<text text-anchor="middle" x="195.8292" y="-41.8" font-family="Helvetica,sans-Serif" font-size="14.00" fill="#000000">samples = 452</text>
<text text-anchor="middle" x="195.8292" y="-25" font-family="Helvetica,sans-Serif" font-size="14.00" fill="#000000">value = [214, 238]</text>
<text text-anchor="middle" x="195.8292" y="-8.2" font-family="Helvetica,sans-Serif" font-size="14.00" fill="#000000">class = bad</text>
</g>
<!-- 1&#45;&gt;3 -->
<g id="edge3" class="edge">
<title>1-&gt;3</title>
<path fill="none" stroke="#000000" d="M191.5356,-110.9595C192.0279,-102.5477 192.5424,-93.7581 193.0371,-85.3049"/>
<polygon fill="#000000" stroke="#000000" points="196.5377,-85.3963 193.628,-75.2088 189.5496,-84.9872 196.5377,-85.3963"/>
</g>
<!-- 5 -->
<g id="node6" class="node">
<title>5</title>
<path fill="#399de5" fill-opacity="0.552941" stroke="#000000" d="M392.4881,-75.3003C392.4881,-75.3003 303.1703,-75.3003 303.1703,-75.3003 297.1703,-75.3003 291.1703,-69.3003 291.1703,-63.3003 291.1703,-63.3003 291.1703,-11.8997 291.1703,-11.8997 291.1703,-5.8997 297.1703,.1003 303.1703,.1003 303.1703,.1003 392.4881,.1003 392.4881,.1003 398.4881,.1003 404.4881,-5.8997 404.4881,-11.8997 404.4881,-11.8997 404.4881,-63.3003 404.4881,-63.3003 404.4881,-69.3003 398.4881,-75.3003 392.4881,-75.3003"/>
<text text-anchor="middle" x="347.8292" y="-58.6" font-family="Helvetica,sans-Serif" font-size="14.00" fill="#000000">entropy = 0.892</text>
<text text-anchor="middle" x="347.8292" y="-41.8" font-family="Helvetica,sans-Serif" font-size="14.00" fill="#000000">samples = 55</text>
<text text-anchor="middle" x="347.8292" y="-25" font-family="Helvetica,sans-Serif" font-size="14.00" fill="#000000">value = [17, 38]</text>
<text text-anchor="middle" x="347.8292" y="-8.2" font-family="Helvetica,sans-Serif" font-size="14.00" fill="#000000">class = bad</text>
</g>
<!-- 4&#45;&gt;5 -->
<g id="edge5" class="edge">
<title>4-&gt;5</title>
<path fill="none" stroke="#000000" d="M352.1228,-110.9595C351.6305,-102.5477 351.116,-93.7581 350.6213,-85.3049"/>
<polygon fill="#000000" stroke="#000000" points="354.1088,-84.9872 350.0304,-75.2088 347.1207,-85.3963 354.1088,-84.9872"/>
</g>
<!-- 6 -->
<g id="node7" class="node">
<title>6</title>
<path fill="#399de5" fill-opacity="0.909804" stroke="#000000" d="M530.7149,-75.3003C530.7149,-75.3003 434.9435,-75.3003 434.9435,-75.3003 428.9435,-75.3003 422.9435,-69.3003 422.9435,-63.3003 422.9435,-63.3003 422.9435,-11.8997 422.9435,-11.8997 422.9435,-5.8997 428.9435,.1003 434.9435,.1003 434.9435,.1003 530.7149,.1003 530.7149,.1003 536.7149,.1003 542.7149,-5.8997 542.7149,-11.8997 542.7149,-11.8997 542.7149,-63.3003 542.7149,-63.3003 542.7149,-69.3003 536.7149,-75.3003 530.7149,-75.3003"/>
<text text-anchor="middle" x="482.8292" y="-58.6" font-family="Helvetica,sans-Serif" font-size="14.00" fill="#000000">entropy = 0.413</text>
<text text-anchor="middle" x="482.8292" y="-41.8" font-family="Helvetica,sans-Serif" font-size="14.00" fill="#000000">samples = 301</text>
<text text-anchor="middle" x="482.8292" y="-25" font-family="Helvetica,sans-Serif" font-size="14.00" fill="#000000">value = [25, 276]</text>
<text text-anchor="middle" x="482.8292" y="-8.2" font-family="Helvetica,sans-Serif" font-size="14.00" fill="#000000">class = bad</text>
</g>
<!-- 4&#45;&gt;6 -->
<g id="edge6" class="edge">
<title>4-&gt;6</title>
<path fill="none" stroke="#000000" d="M404.3173,-110.9595C414.4082,-101.5309 425.0071,-91.6276 435.0374,-82.2555"/>
<polygon fill="#000000" stroke="#000000" points="437.6617,-84.5935 442.579,-75.2088 432.8826,-79.4787 437.6617,-84.5935"/>
</g>
</g>
</svg>